
<svg width="298px" height="232px" viewBox="0 0 298 232" version="1.1" xmlns="http://www.w3.org/2000/svg" xmlns:xlink="http://www.w3.org/1999/xlink">
    <defs>
        <path d="M291.791667,132.444444 C295.220219,132.444444 298,129.664663 298,126.236111 L298,88.9861111 C298,85.557559 295.220219,82.7777778 291.791667,82.7777778 L254.541667,82.7777778 C251.113115,82.7777778 248.333333,85.557559 248.333333,88.9861111 L248.333333,95.1944444 L202.805556,95.1944444 L202.805556,82.7777778 L209.013889,82.7777778 C212.442441,82.7777778 215.222222,79.9979965 215.222222,76.5694444 L215.222222,39.3194444 C215.222222,35.8908924 212.442441,33.1111111 209.013889,33.1111111 L171.763889,33.1111111 C168.335337,33.1111111 165.555556,35.8908924 165.555556,39.3194444 L165.555556,45.5277778 L49.6666667,45.5277778 L49.6666667,39.3194444 C49.6666667,35.8908924 46.8868854,33.1111111 43.4583333,33.1111111 L6.20833333,33.1111111 C2.77978125,33.1111111 0,35.8908924 0,39.3194444 L0,76.5694444 C0,79.9979965 2.77978125,82.7777778 6.20833333,82.7777778 L12.4166667,82.7777778 L12.4166667,165.555556 L6.20833333,165.555556 C2.77978125,165.555556 0,168.335337 0,171.763889 L0,209.013889 C0,212.442441 2.77978125,215.222222 6.20833333,215.222222 L43.4583333,215.222222 C46.8868854,215.222222 49.6666667,212.442441 49.6666667,209.013889 L49.6666667,202.805556 L95.1944444,202.805556 L95.1944444,215.222222 L88.9861111,215.222222 C85.557559,215.222222 82.7777778,218.002003 82.7777778,221.430556 L82.7777778,258.680556 C82.7777778,262.109108 85.557559,264.888889 88.9861111,264.888889 L126.236111,264.888889 C129.664663,264.888889 132.444444,262.109108 132.444444,258.680556 L132.444444,252.472222 L248.333333,252.472222 L248.333333,258.680556 C248.333333,262.109108 251.113115,264.888889 254.541667,264.888889 L291.791667,264.888889 C295.220219,264.888889 298,262.109108 298,258.680556 L298,221.430556 C298,218.002003 295.220219,215.222222 291.791667,215.222222 L285.583333,215.222222 L285.583333,132.444444 L291.791667,132.444444 Z M182.111111,49.6666667 L198.666667,49.6666667 L198.666667,66.2222222 L182.111111,66.2222222 L182.111111,49.6666667 Z M182.111111,182.111111 L198.666667,182.111111 L198.666667,198.666667 L182.111111,198.666667 L182.111111,182.111111 Z M33.1111111,198.666667 L16.5555556,198.666667 L16.5555556,182.111111 L33.1111111,182.111111 L33.1111111,198.666667 Z M33.1111111,66.2222222 L16.5555556,66.2222222 L16.5555556,49.6666667 L33.1111111,49.6666667 L33.1111111,66.2222222 Z M49.6666667,177.972222 L49.6666667,171.763889 C49.6666667,168.335337 46.8868854,165.555556 43.4583333,165.555556 L37.25,165.555556 L37.25,82.7777778 L43.4583333,82.7777778 C46.8868854,82.7777778 49.6666667,79.9979965 49.6666667,76.5694444 L49.6666667,70.3611111 L165.555556,70.3611111 L165.555556,76.5694444 C165.555556,79.9979965 168.335337,82.7777778 171.763889,82.7777778 L177.972222,82.7777778 L177.972222,165.555556 L171.763889,165.555556 C168.335337,165.555556 165.555556,168.335337 165.555556,171.763889 L165.555556,177.972222 L49.6666667,177.972222 Z M115.888889,248.333333 L99.3333333,248.333333 L99.3333333,231.777778 L115.888889,231.777778 L115.888889,248.333333 Z M260.75,215.222222 L254.541667,215.222222 C251.113115,215.222222 248.333333,218.002003 248.333333,221.430556 L248.333333,227.638889 L132.444444,227.638889 L132.444444,221.430556 C132.444444,218.002003 129.664663,215.222222 126.236111,215.222222 L120.027778,215.222222 L120.027778,202.805556 L165.555556,202.805556 L165.555556,209.013889 C165.555556,212.442441 168.335337,215.222222 171.763889,215.222222 L209.013889,215.222222 C212.442441,215.222222 215.222222,212.442441 215.222222,209.013889 L215.222222,171.763889 C215.222222,168.335337 212.442441,165.555556 209.013889,165.555556 L202.805556,165.555556 L202.805556,120.027778 L248.333333,120.027778 L248.333333,126.236111 C248.333333,129.664663 251.113115,132.444444 254.541667,132.444444 L260.75,132.444444 L260.75,215.222222 Z M281.444444,248.333333 L264.888889,248.333333 L264.888889,231.777778 L281.444444,231.777778 L281.444444,248.333333 Z M281.444444,115.888889 L264.888889,115.888889 L264.888889,99.3333333 L281.444444,99.3333333 L281.444444,115.888889 Z" id="path-1"></path>
        <path d="M61.59375,28.4375 L58.171875,28.4375 L58.171875,19.296875 C58.171875,8.65820312 48.4480469,0 36.5,0 C24.5519531,0 14.828125,8.65820312 14.828125,19.296875 L14.828125,28.4375 L11.40625,28.4375 C7.62792969,28.4375 4.5625,31.1669922 4.5625,34.53125 L4.5625,58.90625 C4.5625,62.2705078 7.62792969,65 11.40625,65 L61.59375,65 C65.3720703,65 68.4375,62.2705078 68.4375,58.90625 L68.4375,34.53125 C68.4375,31.1669922 65.3720703,28.4375 61.59375,28.4375 Z M46.765625,28.4375 L26.234375,28.4375 L26.234375,19.296875 C26.234375,14.2568359 30.8396484,10.15625 36.5,10.15625 C42.1603516,10.15625 46.765625,14.2568359 46.765625,19.296875 L46.765625,28.4375 Z" id="path-3"></path>
    </defs>
    <g id="Page-1" stroke="none" stroke-width="1" fill="none" fill-rule="evenodd">
        <g id="CONF-Config-401-Page" transform="translate(-170.000000, -287.000000)">
            <g id="Regular/object-ungroup" transform="translate(170.000000, 254.000000)">
                <mask id="mask-2" fill="white">
                    <use xlink:href="#path-1"></use>
                </mask>
                <g id="Mask"></g>
                <g id="Color/Blue" mask="url(#mask-2)" fill="#BEBEBE" fill-rule="evenodd">
                    <rect id="Blue" x="0" y="0" width="298" height="298"></rect>
                </g>
            </g>
            <g id="Solid/lock" transform="translate(241.000000, 344.000000)">
                <mask id="mask-4" fill="white">
                    <use xlink:href="#path-3"></use>
                </mask>
                <g id="Mask"></g>
                <g id="Color/Black" mask="url(#mask-4)" fill="#A4A4A4" fill-rule="evenodd">
                    <rect id="Black" x="0" y="0" width="73" height="65"></rect>
                </g>
            </g>
        </g>
    </g>
</svg>