<svg xmlns="http://www.w3.org/2000/svg" xmlns:xlink="http://www.w3.org/1999/xlink" viewBox="0 0 42 42"><defs><style>.cls-61,.cls-62{fill:none;}.cls-62{clip-rule:evenodd;}.cls-63{clip-path:url(#clip-path-61);}.cls-64{clip-path:url(#clip-path-62);}.cls-65{fill:#ddd;}.cls-66{clip-path:url(#clip-path-63);}.cls-67{fill:#707070;}</style><clipPath id="clip-path-61" transform="translate(-1206 -13)"><circle class="cls-1" cx="1227" cy="34" r="16"/></clipPath><clipPath id="clip-path-62" transform="translate(-1206 -13)"><rect class="cls-61" width="1368" height="1024"/></clipPath><clipPath id="clip-path-63" transform="translate(-1206 -13)"><path class="cls-62" d="M1233,27h-12a2,2,0,0,0-2,2v8a2,2,0,0,0,2,2v4l4-4h8a2,2,0,0,0,2-2V29A2,2,0,0,0,1233,27Zm-6.06,2a1,1,0,1,1-1,1A1,1,0,0,1,1226.94,29Zm2.06,8h-4V36h1.58V33h-1.14V32h2.64v4h.92Z"/></clipPath></defs><g id="Layer_2" data-name="Layer 2"><g id="Layer_1-2" data-name="Layer 1"><g class="cls-63"><g class="cls-64"><rect class="cls-65" width="42" height="42"/></g></g><g class="cls-66"><g class="cls-64"><rect class="cls-67" x="8" y="9" width="26" height="26"/></g></g></g></g></svg>