<svg xmlns="http://www.w3.org/2000/svg" xmlns:xlink="http://www.w3.org/1999/xlink" viewBox="0 0 66 66"><defs><style>.cls-1{fill:none;clip-rule:evenodd;}.cls-2{clip-path:url(#clip-path);}.cls-3{fill:#3ab4d4;}.cls-4{clip-path:url(#clip-path-2);}.cls-5{clip-path:url(#clip-path-3);}.cls-6{clip-path:url(#clip-path-4);}.cls-7{fill:#909090;}</style><clipPath id="clip-path"><path class="cls-1" d="M33,6A27,27,0,1,1,6,33,27,27,0,0,1,33,6m0-1A28,28,0,1,0,61,33,28,28,0,0,0,33,5"/></clipPath><clipPath id="clip-path-2"><path class="cls-1" d="M33,49.38a16.29,16.29,0,0,1-10.4-3.73.5.5,0,1,1,.64-.77A15.27,15.27,0,0,0,33,48.38a15.51,15.51,0,0,0,10.17-3.83.49.49,0,0,1,.7.05.5.5,0,0,1,0,.71A16.48,16.48,0,0,1,33,49.38M17.36,36.68a.49.49,0,0,1-.48-.4,15.47,15.47,0,0,1-.38-3.4A16.56,16.56,0,0,1,27.24,17.43a.5.5,0,0,1,.65.29.52.52,0,0,1-.3.65A15.57,15.57,0,0,0,17.5,32.88a14.83,14.83,0,0,0,.35,3.19.5.5,0,0,1-.38.6h-.11m31.39-.53h-.09a.5.5,0,0,1-.4-.58A15.42,15.42,0,0,0,37.88,18.2a.51.51,0,0,1-.32-.63.52.52,0,0,1,.64-.32,16.39,16.39,0,0,1,11,18.49.49.49,0,0,1-.49.41"/></clipPath><clipPath id="clip-path-3"><path class="cls-1" d="M23.09,25a4,4,0,1,1-4-4,4,4,0,0,1,4,4"/></clipPath><clipPath id="clip-path-4"><path class="cls-1" d="M29.69,36.64l-3.38,2L14.38,45.58a.59.59,0,0,1-.8-.21h0a.58.58,0,0,1,.17-.77l8.93-7.74,2.88-.2L28.48,35A4.86,4.86,0,0,0,29.69,36.64Zm1.81-8.33a4.67,4.67,0,0,1,1.5-.24,5.12,5.12,0,0,1,.56,0V24.73l1.27-2.59L32.58,10.52A.58.58,0,0,0,32,10h0a.58.58,0,0,0-.59.58V24.36ZM53.21,42.84,41.27,36l-3.46-1.9A4.75,4.75,0,0,1,37,35.93l2.93,1.68L41.5,40l11.18,3.87a.58.58,0,0,0,.53-1ZM36,33a3,3,0,1,1-3-3A3,3,0,0,1,36,33Z"/></clipPath></defs><g id="Layer_2" data-name="Layer 2"><g id="Layer_1-2" data-name="Layer 1"><g class="cls-2"><rect class="cls-3" width="66" height="66"/></g><g class="cls-4"><rect class="cls-3" x="11.5" y="12.23" width="43" height="42.16"/></g><g class="cls-5"><rect class="cls-3" x="10.09" y="15.97" width="18" height="18"/></g><g class="cls-6"><rect class="cls-7" x="8.5" y="5" width="50" height="45.67"/></g></g></g></svg>